<svg xmlns="http://www.w3.org/2000/svg" viewBox="0 0 400 400" width="400" height="400">
  <defs>
    <linearGradient id="tunnelGradient" x1="0%" y1="0%" x2="100%" y2="100%">
      <stop offset="0%" style="stop-color:#6366f1;stop-opacity:1" />
      <stop offset="50%" style="stop-color:#8b5cf6;stop-opacity:1" />
      <stop offset="100%" style="stop-color:#ec4899;stop-opacity:1" />
    </linearGradient>
    <radialGradient id="tunnelInner" cx="50%" cy="50%" r="50%">
      <stop offset="0%" style="stop-color:#ffffff;stop-opacity:0.3" />
      <stop offset="100%" style="stop-color:#000000;stop-opacity:0.8" />
    </radialGradient>
  </defs>
  
  <!-- Fondo del túnel -->
  <circle cx="200" cy="200" r="180" fill="url(#tunnelGradient)" opacity="0.9"/>
  
  <!-- Anillos del túnel (efecto de profundidad) -->
  <circle cx="200" cy="200" r="160" fill="none" stroke="#ffffff" stroke-width="2" opacity="0.3"/>
  <circle cx="200" cy="200" r="140" fill="none" stroke="#ffffff" stroke-width="2" opacity="0.4"/>
  <circle cx="200" cy="200" r="120" fill="none" stroke="#ffffff" stroke-width="2" opacity="0.5"/>
  <circle cx="200" cy="200" r="100" fill="none" stroke="#ffffff" stroke-width="2" opacity="0.6"/>
  <circle cx="200" cy="200" r="80" fill="none" stroke="#ffffff" stroke-width="2" opacity="0.7"/>
  <circle cx="200" cy="200" r="60" fill="none" stroke="#ffffff" stroke-width="2" opacity="0.8"/>
  <circle cx="200" cy="200" r="40" fill="none" stroke="#ffffff" stroke-width="2" opacity="0.9"/>
  
  <!-- Centro del túnel (luz al final) -->
  <circle cx="200" cy="200" r="30" fill="url(#tunnelInner)"/>
  <circle cx="200" cy="200" r="20" fill="#ffffff" opacity="0.9"/>
  
  <!-- Partículas de luz -->
  <circle cx="150" cy="150" r="3" fill="#ffffff" opacity="0.6"/>
  <circle cx="250" cy="150" r="3" fill="#ffffff" opacity="0.6"/>
  <circle cx="150" cy="250" r="3" fill="#ffffff" opacity="0.6"/>
  <circle cx="250" cy="250" r="3" fill="#ffffff" opacity="0.6"/>
  <circle cx="200" cy="120" r="2" fill="#ffffff" opacity="0.5"/>
  <circle cx="200" cy="280" r="2" fill="#ffffff" opacity="0.5"/>
  <circle cx="120" cy="200" r="2" fill="#ffffff" opacity="0.5"/>
  <circle cx="280" cy="200" r="2" fill="#ffffff" opacity="0.5"/>
</svg>

